<svg xmlns="http://www.w3.org/2000/svg" viewBox="0 0 800 800" fill="none"><defs></defs><rect x="0" y="0" width="800" height="800" rx="0" fill="#020617" /><path d="M 0 2 L 800 2" fill="none" stroke="#94a3b8" stroke-width="2" opacity="0.35"/><path d="M 0 59 L 800 59" fill="none" stroke="#94a3b8" stroke-width="2" opacity="0.35"/><path d="M 0 115 L 800 115" fill="none" stroke="#94a3b8" stroke-width="2" opacity="0.35"/><path d="M 0 171 L 800 171" fill="none" stroke="#94a3b8" stroke-width="2" opacity="0.35"/><path d="M 0 224 L 800 224" fill="none" stroke="#94a3b8" stroke-width="2" opacity="0.35"/><path d="M 0 288 L 800 288" fill="none" stroke="#94a3b8" stroke-width="2" opacity="0.35"/><path d="M 0 338 L 800 338" fill="none" stroke="#94a3b8" stroke-width="2" opacity="0.35"/><path d="M 0 394 L 800 394" fill="none" stroke="#94a3b8" stroke-width="2" opacity="0.35"/><path d="M 0 450 L 800 450" fill="none" stroke="#94a3b8" stroke-width="2" opacity="0.35"/><path d="M 0 508 L 800 508" fill="none" stroke="#94a3b8" stroke-width="2" opacity="0.35"/><path d="M 0 561 L 800 561" fill="none" stroke="#94a3b8" stroke-width="2" opacity="0.35"/><path d="M 0 622 L 800 622" fill="none" stroke="#94a3b8" stroke-width="2" opacity="0.35"/><path d="M 0 680 L 800 680" fill="none" stroke="#94a3b8" stroke-width="2" opacity="0.35"/><path d="M 0 729 L 800 729" fill="none" stroke="#94a3b8" stroke-width="2" opacity="0.35"/><path d="M 0 789 L 800 789" fill="none" stroke="#94a3b8" stroke-width="2" opacity="0.35"/></svg>